<svg width="279" height="80" viewBox="0 0 279 80" fill="none" xmlns="http://www.w3.org/2000/svg">
<g filter="url(#filter0_d_5_103)">
<path d="M210.656 4.53125C213.469 5.03125 215.781 5.375 217.594 5.5625C219.406 5.75 220.875 5.90625 222 6.03125C223.313 6.15625 224.344 6.1875 225.094 6.125H227.906C228.906 6.125 230.156 6.125 231.656 6.125C233.219 6.0625 235.156 6.03125 237.469 6.03125C238.781 9.09375 239.969 11.9062 241.031 14.4688C242.156 17.0312 243.094 19.2188 243.844 21.0312C244.719 23.2188 245.531 25.1875 246.281 26.9375C247.156 29.125 248.094 31.5312 249.094 34.1562C250.094 36.7812 251 39.25 251.813 41.5625C252.688 43.875 253.406 45.7812 253.969 47.2812C254.531 48.7812 254.813 49.4688 254.813 49.3438C254.813 49.2812 254.844 48.6562 254.906 47.4688C254.969 46.2188 255.031 44.6875 255.094 42.875C255.156 41 255.219 38.9688 255.281 36.7812C255.406 34.5312 255.469 32.375 255.469 30.3125C255.531 28.1875 255.563 26.25 255.563 24.5C255.563 22.75 255.5 21.4375 255.375 20.5625C255.188 19.5 254.813 18.2812 254.25 16.9062C253.75 15.7188 253.063 14.3125 252.188 12.6875C251.313 11 250.094 9.09375 248.531 6.96875C251.094 7.03125 253.188 7.0625 254.813 7.0625C256.438 7.0625 257.75 7.0625 258.75 7.0625C259.875 7.0625 260.75 7.03125 261.375 6.96875C262.188 6.96875 263.188 6.90625 264.375 6.78125C265.438 6.65625 266.75 6.5625 268.313 6.5C269.938 6.375 271.938 6.21875 274.313 6.03125C272.938 7.28125 271.844 8.46875 271.031 9.59375C270.219 10.7188 269.563 11.7188 269.063 12.5938C268.5 13.5938 268.125 14.5312 267.938 15.4062C267.688 16.5312 267.469 18.375 267.281 20.9375C267.156 23.4375 267 26.25 266.813 29.375C266.688 32.5 266.563 35.75 266.438 39.125C266.313 42.5 266.188 45.5938 266.063 48.4062C266.063 50.5312 266 52.8125 265.875 55.25C265.75 57.3125 265.625 59.6562 265.5 62.2812C265.375 64.8438 265.219 67.4375 265.031 70.0625L256.688 70.25C254.25 65.9375 252.188 62.25 250.5 59.1875C248.875 56.0625 247.531 53.5 246.469 51.5C245.281 49.1875 244.281 47.25 243.469 45.6875C242.781 44.1875 241.875 42.4688 240.75 40.5312C239.813 38.9062 238.625 36.9062 237.188 34.5312C235.813 32.1562 234.156 29.4375 232.219 26.375C232.031 30.6875 231.938 34.375 231.938 37.4375C232 40.4375 232.094 42.9375 232.219 44.9375C232.406 47.25 232.625 49.1875 232.875 50.75C233.188 52.25 233.625 53.9375 234.188 55.8125C234.688 57.4375 235.281 59.3438 235.969 61.5312C236.719 63.7188 237.625 66.1875 238.688 68.9375C235 68.75 232.25 68.6562 230.438 68.6562H227.625C226.75 68.6562 225.563 68.75 224.063 68.9375C222.813 69.0625 221.094 69.25 218.906 69.5C216.781 69.75 214.125 70.0938 210.938 70.5312C212.438 68.7188 213.625 67.0625 214.5 65.5625C215.438 64 216.156 62.6875 216.656 61.625C217.281 60.375 217.719 59.2812 217.969 58.3438C218.156 57.3438 218.281 55.625 218.344 53.1875C218.406 50.6875 218.406 47.875 218.344 44.75C218.344 41.5625 218.281 38.2188 218.156 34.7188C218.094 31.2188 218 27.9688 217.875 24.9688C217.75 21.9688 217.594 19.4062 217.406 17.2812C217.281 15.1562 217.188 13.8438 217.125 13.3438C216.938 12.5312 216.563 11.6562 216 10.7188C215.5 9.90625 214.844 9 214.031 8C213.219 6.9375 212.094 5.78125 210.656 4.53125Z" fill="black"/>
</g>
<g filter="url(#filter1_d_5_103)">
<path d="M181.875 6.40625C184 6.65625 185.781 6.84375 187.219 6.96875C188.719 7.03125 189.938 7.125 190.875 7.25C192 7.375 192.875 7.4375 193.5 7.4375C194.188 7.5 195.219 7.46875 196.594 7.34375C197.781 7.21875 199.375 7.0625 201.375 6.875C203.438 6.6875 206.063 6.40625 209.25 6.03125C207.813 7.28125 206.656 8.5 205.781 9.6875C204.969 10.8125 204.344 11.8125 203.906 12.6875C203.344 13.75 203 14.75 202.875 15.6875C202.625 17.1875 202.406 19.25 202.219 21.875C202.094 24.4375 201.969 27.25 201.844 30.3125C201.719 33.375 201.656 36.5312 201.656 39.7812C201.656 43.0312 201.688 46.125 201.75 49.0625C201.875 51.9375 202.063 54.5 202.313 56.75C202.625 59 203 60.625 203.438 61.625C204.063 62.75 204.719 63.875 205.406 65C206.031 65.9375 206.781 66.9062 207.656 67.9062C208.531 68.9062 209.531 69.7188 210.656 70.3438C206.969 70.1562 204.031 70.0625 201.844 70.0625H198.469C197.469 70.0625 196.188 70.125 194.625 70.25C193.313 70.375 191.656 70.5 189.656 70.625C187.656 70.75 185.25 70.9375 182.438 71.1875C183.875 69.625 185 68.125 185.813 66.6875C186.625 65.25 187.281 64 187.781 62.9375C188.344 61.6875 188.719 60.5 188.906 59.375C189.156 57.75 189.344 55.75 189.469 53.375C189.656 50.9375 189.781 48.3438 189.844 45.5938C189.906 42.7812 189.906 39.9375 189.844 37.0625C189.844 34.125 189.781 31.3125 189.656 28.625C189.531 25.9375 189.344 23.5 189.094 21.3125C188.906 19.125 188.656 17.375 188.344 16.0625C188.156 15.25 187.781 14.3438 187.219 13.3438C186.719 12.4688 186.031 11.4688 185.156 10.3438C184.344 9.15625 183.25 7.84375 181.875 6.40625Z" fill="black"/>
</g>
<g filter="url(#filter2_d_5_103)">
<path d="M155.906 3.31247C159.906 3.24997 163.187 3.96872 165.75 5.46872C168.375 6.96872 170.5 8.74997 172.125 10.8125C173.75 12.875 175 14.9687 175.875 17.0937C176.75 19.1562 177.437 20.7812 177.937 21.9687C178.062 22.2812 178.312 22.6875 178.687 23.1875C179 23.625 179.437 24.1562 180 24.7812C180.625 25.3437 181.406 26 182.344 26.75C180.406 26.8125 178.687 26.875 177.187 26.9375C175.687 26.9375 174.406 26.9687 173.344 27.0312C172.156 27.0937 171.094 27.1562 170.156 27.2187C169.219 27.2812 168.062 27.375 166.687 27.5C165.437 27.625 163.906 27.75 162.094 27.875C160.281 28 158.062 28.1875 155.437 28.4375C157 26.5625 158.219 24.9062 159.094 23.4687C160.031 21.9687 160.719 20.6562 161.156 19.5312C161.656 18.3437 161.937 17.3125 162 16.4375C162.125 15.5625 162.094 14.8125 161.906 14.1875C161.531 12.75 160.562 11.7187 159 11.0937C154.5 9.84372 150.562 10.8437 147.187 14.0937C143.875 17.2812 141.5 22.5312 140.062 29.8437C139.375 33.4687 138.719 37.25 138.094 41.1875C137.531 45.0625 137.312 48.625 137.437 51.875C137.562 55.0625 138.187 57.6562 139.312 59.6562C140.437 61.6562 142.375 62.5937 145.125 62.4687C147.812 62.3437 150.094 61.9062 151.969 61.1562C153.844 60.3437 155.344 59.4062 156.469 58.3437C157.594 57.2187 158.375 56.0312 158.812 54.7812C159.312 53.4687 159.5 52.25 159.375 51.125C159.125 50.25 158.469 49.3125 157.406 48.3125C156.469 47.4375 155.062 46.4687 153.187 45.4062C151.312 44.2812 148.625 43.125 145.125 41.9375C148.437 41.75 151.156 41.625 153.281 41.5625C155.469 41.4375 157.187 41.3125 158.437 41.1875C159.937 41.0625 161.094 40.9687 161.906 40.9062C162.656 40.8437 163.75 40.7812 165.187 40.7187C166.437 40.6562 168.031 40.625 169.969 40.625C171.969 40.625 174.469 40.5937 177.469 40.5312C176.344 41.6562 175.469 42.6875 174.844 43.625C174.531 44.125 174.25 44.5625 174 44.9375C173.75 45.5625 173.656 46.8437 173.719 48.7812C173.719 50.4062 173.844 52.8125 174.094 56C174.344 59.125 174.812 63.4062 175.5 68.8437L163.031 70.5312L163.594 57.875C162.156 61.3125 160.344 63.875 158.156 65.5625C156.031 67.25 154 68.4375 152.062 69.125C149.75 69.9375 147.344 70.3125 144.844 70.25C141.594 69.9375 138.344 69.1875 135.094 68C131.844 66.8125 128.969 65 126.469 62.5625C123.969 60.0625 122.031 56.8437 120.656 52.9062C119.344 48.9687 118.937 44.0937 119.437 38.2812C120 32.4687 121.375 27.4062 123.562 23.0937C125.812 18.7187 128.594 15.0937 131.906 12.2187C135.219 9.34372 138.937 7.18747 143.062 5.74997C147.25 4.24997 151.531 3.43747 155.906 3.31247Z" fill="black"/>
</g>
<g filter="url(#filter3_d_5_103)">
<path d="M85.9684 0.312456C89.3434 0.437456 92.7497 1.06246 96.1872 2.18746C99.6872 3.24996 102.906 4.99996 105.843 7.43746C108.781 9.81246 111.281 12.9062 113.343 16.7187C115.406 20.4687 116.687 25.0625 117.187 30.5C117.625 34.9375 117.062 39.3437 115.5 43.7187C114 48.0312 111.906 52 109.218 55.625C106.531 59.25 103.437 62.3437 99.9372 64.9062C96.4372 67.4062 92.9372 69.0625 89.4372 69.875C87.3122 70.375 84.9684 70.4375 82.4059 70.0625C79.9059 69.625 77.3434 68.8437 74.7184 67.7187C72.1559 66.5312 69.6247 65.0312 67.1247 63.2187C64.6872 61.4062 62.4684 59.3437 60.4684 57.0312C58.4684 54.6562 56.7809 52.0937 55.4059 49.3437C54.0934 46.5937 53.2809 43.7187 52.9684 40.7187C52.6559 38.2187 52.6247 35.4687 52.8747 32.4687C53.1872 29.4062 53.7809 26.375 54.6559 23.375C55.5934 20.3125 56.8747 17.375 58.4997 14.5625C60.1872 11.6875 62.3122 9.18746 64.8747 7.06246C67.4372 4.87496 70.4372 3.18746 73.8747 1.99996C77.3747 0.749956 81.4059 0.187456 85.9684 0.312456ZM69.1872 38.2812C68.3122 44.9687 68.9372 50.3437 71.0622 54.4062C73.2497 58.4687 76.5309 60.9375 80.9059 61.8125C83.0309 62.25 85.0622 61.8125 86.9997 60.5C88.9997 59.125 90.8122 57.1562 92.4372 54.5937C94.0622 52.0312 95.4684 49.0312 96.6559 45.5937C97.8434 42.1562 98.7184 38.5625 99.2809 34.8125C99.8434 31.0625 99.8747 27.6875 99.3747 24.6875C98.9372 21.625 98.1559 19.0312 97.0309 16.9062C95.9059 14.7187 94.5309 13.0312 92.9059 11.8437C91.3434 10.6562 89.7184 9.99996 88.0309 9.87496C85.0934 9.68746 82.5309 10.4687 80.3434 12.2187C78.1559 13.9062 76.3122 16.125 74.8122 18.875C73.3122 21.625 72.0934 24.7187 71.1559 28.1562C70.2809 31.5937 69.6247 34.9687 69.1872 38.2812Z" fill="black"/>
</g>
<g filter="url(#filter4_d_5_103)">
<path d="M4.96875 3.03125C6.78125 3.34375 8.375 3.5625 9.75 3.6875C11.1875 3.8125 12.375 3.90625 13.3125 3.96875C14.4375 4.03125 15.4063 4.0625 16.2188 4.0625C17.0313 4.0625 18.1875 4 19.6875 3.875C20.9375 3.75 22.5625 3.59375 24.5625 3.40625C26.625 3.21875 29.1563 2.90625 32.1563 2.46875C31.2813 2.71875 30.4688 3.4375 29.7188 4.625C29.0313 5.75 28.4063 6.96875 27.8438 8.28125C27.1563 9.84375 26.5625 11.5625 26.0625 13.4375C25.625 15.125 25.0625 17.4375 24.375 20.375C23.75 23.3125 23.125 26.5 22.5 29.9375C21.9375 33.375 21.5 36.875 21.1875 40.4375C20.875 43.9375 20.8125 47.1562 21 50.0938C21.25 53.0312 21.8438 55.4688 22.7813 57.4062C23.7188 59.2812 25.1563 60.2812 27.0938 60.4062C30.0313 60.6562 32.4688 60.6875 34.4063 60.5C36.4063 60.25 38.0313 59.9062 39.2813 59.4688C40.5313 59.0312 41.5 58.5312 42.1875 57.9688C42.875 57.3438 43.4063 56.75 43.7813 56.1875C44.7813 54.75 45.8125 52.9062 46.875 50.6562C47.9375 48.4062 48.875 46.25 49.6875 44.1875C50.5625 42.125 51.2813 40.375 51.8438 38.9375C52.4063 37.5 52.6875 36.8125 52.6875 36.875C52.6875 37 52.6563 37.7188 52.5938 39.0312C52.5938 40.2812 52.5625 41.8125 52.5 43.625C52.5 45.375 52.4688 47.2188 52.4063 49.1562C52.4063 51.0938 52.375 52.75 52.3125 54.125C52.25 55.25 52.1875 56.5 52.125 57.875C52.0625 59.0625 52 60.4688 51.9375 62.0938C51.9375 63.7188 51.875 65.5 51.75 67.4375C49.125 67.25 46.625 67.125 44.25 67.0625C41.875 67 39.7813 66.9688 37.9688 66.9688C35.8438 66.9688 33.875 67 32.0625 67.0625C30.125 67.125 27.875 67.2188 25.3125 67.3438C23.125 67.4688 20.4063 67.625 17.1563 67.8125C13.9063 67.9375 10.1563 68.125 5.90625 68.375C6.40625 67.5 6.8125 66.6875 7.125 65.9375C7.5 65.1875 7.78125 64.5625 7.96875 64.0625C8.21875 63.4375 8.375 62.9062 8.4375 62.4688C8.8125 60.4688 9.125 57.9375 9.375 54.875C9.625 51.75 9.8125 48.4375 9.9375 44.9375C10.125 41.4375 10.2188 37.875 10.2188 34.25C10.2813 30.5625 10.2813 27.1562 10.2188 24.0312C10.1563 20.9062 10.0313 18.1875 9.84375 15.875C9.71875 13.5625 9.53125 11.9688 9.28125 11.0938C8.96875 10.0938 8.59375 9.09375 8.15625 8.09375C7.78125 7.21875 7.3125 6.34375 6.75 5.46875C6.25 4.53125 5.65625 3.71875 4.96875 3.03125Z" fill="black"/>
</g>
<defs>
<filter id="filter0_d_5_103" x="206.656" y="4.53125" width="71.6562" height="74" filterUnits="userSpaceOnUse" color-interpolation-filters="sRGB">
<feFlood flood-opacity="0" result="BackgroundImageFix"/>
<feColorMatrix in="SourceAlpha" type="matrix" values="0 0 0 0 0 0 0 0 0 0 0 0 0 0 0 0 0 0 127 0" result="hardAlpha"/>
<feOffset dy="4"/>
<feGaussianBlur stdDeviation="2"/>
<feComposite in2="hardAlpha" operator="out"/>
<feColorMatrix type="matrix" values="0 0 0 0 0 0 0 0 0 0 0 0 0 0 0 0 0 0 0.25 0"/>
<feBlend mode="normal" in2="BackgroundImageFix" result="effect1_dropShadow_5_103"/>
<feBlend mode="normal" in="SourceGraphic" in2="effect1_dropShadow_5_103" result="shape"/>
</filter>
<filter id="filter1_d_5_103" x="177.875" y="6.03125" width="36.7812" height="73.1562" filterUnits="userSpaceOnUse" color-interpolation-filters="sRGB">
<feFlood flood-opacity="0" result="BackgroundImageFix"/>
<feColorMatrix in="SourceAlpha" type="matrix" values="0 0 0 0 0 0 0 0 0 0 0 0 0 0 0 0 0 0 127 0" result="hardAlpha"/>
<feOffset dy="4"/>
<feGaussianBlur stdDeviation="2"/>
<feComposite in2="hardAlpha" operator="out"/>
<feColorMatrix type="matrix" values="0 0 0 0 0 0 0 0 0 0 0 0 0 0 0 0 0 0 0.25 0"/>
<feBlend mode="normal" in2="BackgroundImageFix" result="effect1_dropShadow_5_103"/>
<feBlend mode="normal" in="SourceGraphic" in2="effect1_dropShadow_5_103" result="shape"/>
</filter>
<filter id="filter2_d_5_103" x="115.23" y="3.30872" width="71.1133" height="75.2225" filterUnits="userSpaceOnUse" color-interpolation-filters="sRGB">
<feFlood flood-opacity="0" result="BackgroundImageFix"/>
<feColorMatrix in="SourceAlpha" type="matrix" values="0 0 0 0 0 0 0 0 0 0 0 0 0 0 0 0 0 0 127 0" result="hardAlpha"/>
<feOffset dy="4"/>
<feGaussianBlur stdDeviation="2"/>
<feComposite in2="hardAlpha" operator="out"/>
<feColorMatrix type="matrix" values="0 0 0 0 0 0 0 0 0 0 0 0 0 0 0 0 0 0 0.25 0"/>
<feBlend mode="normal" in2="BackgroundImageFix" result="effect1_dropShadow_5_103"/>
<feBlend mode="normal" in="SourceGraphic" in2="effect1_dropShadow_5_103" result="shape"/>
</filter>
<filter id="filter3_d_5_103" x="48.708" y="0.29541" width="72.623" height="78.0081" filterUnits="userSpaceOnUse" color-interpolation-filters="sRGB">
<feFlood flood-opacity="0" result="BackgroundImageFix"/>
<feColorMatrix in="SourceAlpha" type="matrix" values="0 0 0 0 0 0 0 0 0 0 0 0 0 0 0 0 0 0 127 0" result="hardAlpha"/>
<feOffset dy="4"/>
<feGaussianBlur stdDeviation="2"/>
<feComposite in2="hardAlpha" operator="out"/>
<feColorMatrix type="matrix" values="0 0 0 0 0 0 0 0 0 0 0 0 0 0 0 0 0 0 0.25 0"/>
<feBlend mode="normal" in2="BackgroundImageFix" result="effect1_dropShadow_5_103"/>
<feBlend mode="normal" in="SourceGraphic" in2="effect1_dropShadow_5_103" result="shape"/>
</filter>
<filter id="filter4_d_5_103" x="0.96875" y="2.46875" width="55.7188" height="73.9062" filterUnits="userSpaceOnUse" color-interpolation-filters="sRGB">
<feFlood flood-opacity="0" result="BackgroundImageFix"/>
<feColorMatrix in="SourceAlpha" type="matrix" values="0 0 0 0 0 0 0 0 0 0 0 0 0 0 0 0 0 0 127 0" result="hardAlpha"/>
<feOffset dy="4"/>
<feGaussianBlur stdDeviation="2"/>
<feComposite in2="hardAlpha" operator="out"/>
<feColorMatrix type="matrix" values="0 0 0 0 0 0 0 0 0 0 0 0 0 0 0 0 0 0 0.25 0"/>
<feBlend mode="normal" in2="BackgroundImageFix" result="effect1_dropShadow_5_103"/>
<feBlend mode="normal" in="SourceGraphic" in2="effect1_dropShadow_5_103" result="shape"/>
</filter>
</defs>
</svg>
